<?xml version="1.0" standalone="no"?>
<!DOCTYPE svg PUBLIC "-//W3C//DTD SVG 20010904//EN"
 "http://www.w3.org/TR/2001/REC-SVG-20010904/DTD/svg10.dtd">
<svg version="1.0" xmlns="http://www.w3.org/2000/svg"
 width="426.000000pt" height="460.000000pt" viewBox="0 0 426.000000 460.000000"
 preserveAspectRatio="xMidYMid meet">

<g transform="translate(0.000000,460.000000) scale(0.100000,-0.100000)"
fill="#000000" stroke="none">
<path fill="#E6660F" d="M2986 3415 c-26 -7 -52 -19 -57 -26 -5 -8 -6 -37 -3 -65 6 -51 6 -51
-33 -75 -21 -13 -41 -25 -45 -27 -4 -2 -25 9 -47 23 -48 33 -72 28 -106 -23
-34 -50 -32 -71 14 -112 l40 -35 -11 -52 c-11 -50 -12 -51 -54 -58 -58 -8 -78
-33 -70 -86 12 -75 20 -82 86 -76 l58 7 23 -38 c13 -20 25 -41 27 -45 2 -4 -8
-26 -23 -47 -19 -27 -25 -47 -21 -62 5 -22 50 -59 88 -73 18 -7 49 18 78 63
14 22 17 22 68 11 51 -12 53 -14 59 -52 9 -57 34 -79 81 -71 20 3 48 13 61 21
22 14 23 20 18 74 -3 32 -2 59 3 59 4 0 24 11 44 25 l37 25 37 -25 c54 -37 76
-33 112 21 39 55 35 83 -16 115 -35 21 -36 23 -29 67 10 66 12 69 57 75 22 3
48 12 56 21 20 20 17 92 -4 124 -14 22 -20 23 -72 18 l-57 -6 -25 42 -26 43
29 47 c33 54 29 73 -27 107 -50 31 -72 27 -104 -19 -26 -38 -29 -40 -67 -34
-68 9 -71 12 -81 61 -12 62 -34 75 -98 58z m185 -351 c58 -56 62 -137 8 -199
-114 -129 -308 4 -233 160 39 84 157 104 225 39z"/>
<path fill="#222750" d="M1140 3320 c-45 -11 -73 -45 -65 -82 16 -86 18 -81 -37 -116 l-51
-32 -45 30 c-67 44 -87 40 -132 -26 -48 -68 -42 -89 39 -152 24 -18 24 -20 10
-77 l-14 -59 -54 -12 c-30 -7 -61 -20 -68 -30 -15 -21 -9 -91 11 -134 11 -23
16 -25 81 -24 l70 2 32 -49 31 -49 -29 -40 c-44 -60 -39 -92 19 -135 26 -19
57 -35 68 -35 20 0 69 46 91 85 8 14 16 14 68 3 l60 -13 10 -54 c13 -67 34
-85 94 -76 92 14 107 33 97 119 l-7 52 50 32 49 32 52 -32 c49 -30 53 -31 78
-17 15 8 40 36 56 62 35 57 29 82 -34 124 -34 24 -39 32 -34 53 4 14 10 40 13
59 6 32 10 35 58 46 29 7 59 18 68 25 17 15 20 68 4 123 -12 46 -38 58 -100
46 -24 -4 -47 -8 -50 -9 -3 0 -20 23 -37 50 l-31 50 31 50 c39 62 33 89 -26
130 -64 43 -88 40 -131 -17 -20 -27 -40 -48 -43 -47 -4 0 -30 4 -58 8 l-52 8
-11 59 c-16 78 -39 90 -131 69z m201 -393 c19 -12 45 -43 58 -70 34 -69 24
-127 -33 -183 -83 -83 -209 -65 -261 37 -29 54 -16 140 28 188 50 54 149 68
208 28z"/>
<path fill="#222750" d="M2433 2840 c-29 -12 -55 -55 -78 -130 l-18 -60 -56 0 c-31 0 -73 -3
-93 -6 l-37 -6 -38 78 c-33 68 -43 81 -75 93 -35 12 -41 11 -108 -20 -126 -58
-144 -105 -86 -219 l34 -65 -42 -45 c-23 -25 -50 -57 -61 -72 l-20 -28 -83 27
-83 28 -37 -20 c-32 -18 -40 -30 -65 -100 -45 -127 -28 -163 99 -205 l64 -22
0 -47 c0 -27 3 -69 6 -94 l7 -45 -71 -36 c-111 -56 -124 -94 -73 -208 30 -68
69 -108 105 -108 12 0 55 16 95 35 l74 35 56 -51 c31 -29 61 -57 68 -63 10 -9
7 -26 -12 -79 -46 -125 -29 -161 94 -202 120 -40 152 -23 192 103 l23 72 55 0
c31 0 73 3 93 6 l37 6 38 -78 c33 -67 43 -80 75 -92 36 -14 40 -13 118 24 114
53 134 97 86 192 -43 85 -42 88 6 140 24 26 51 57 60 70 l15 23 68 -26 c123
-46 159 -29 199 93 14 42 26 88 26 100 0 37 -49 77 -123 101 l-67 23 0 56 c0
31 -3 74 -6 94 l-6 37 70 35 c80 40 102 65 102 116 0 46 -50 151 -85 178 -38
30 -58 28 -144 -13 l-73 -35 -68 62 -68 61 24 70 c43 128 28 161 -94 201 -85
28 -87 29 -119 16z m-60 -585 c50 -21 93 -60 125 -114 23 -39 27 -57 27 -121
0 -64 -4 -83 -29 -128 -49 -88 -124 -132 -226 -132 -185 0 -306 202 -221 367
25 48 86 108 131 127 45 20 148 20 193 1z"/>
</g>
</svg>
