<?xml version="1.0" standalone="no"?>
<!DOCTYPE svg PUBLIC "-//W3C//DTD SVG 20010904//EN"
 "http://www.w3.org/TR/2001/REC-SVG-20010904/DTD/svg10.dtd">
<svg version="1.0" xmlns="http://www.w3.org/2000/svg"
 width="312.000000pt" height="312.000000pt" viewBox="0 0 312.000000 312.000000"
 preserveAspectRatio="xMidYMid meet">

<g transform="translate(0.000000,312.000000) scale(0.100000,-0.100000)"
fill="#000000" stroke="none">
<path fill="#E6660F" d="M2460 2687 c-22 -11 -25 -20 -28 -80 l-3 -67 -45 -26 -46 -27 -44 21
c-25 12 -53 22 -63 22 -22 0 -56 -36 -71 -74 -12 -34 2 -62 50 -97 31 -24 32
-30 9 -106 -9 -28 -18 -34 -64 -48 -61 -17 -72 -36 -62 -101 10 -59 23 -67 92
-61 l61 6 27 -45 c15 -25 27 -48 27 -52 0 -4 -12 -30 -27 -59 l-28 -52 29 -30
c16 -16 42 -35 59 -42 30 -13 32 -12 72 35 40 45 44 47 81 41 57 -10 81 -29
88 -69 12 -65 57 -82 131 -52 l35 15 0 70 c0 39 4 71 9 71 4 0 25 11 46 26
l37 25 40 -26 c54 -36 85 -30 121 22 36 51 32 78 -19 113 -36 24 -36 25 -31
78 7 65 17 78 65 87 70 13 89 56 58 130 -16 37 -18 38 -101 35 -50 -1 -50 -1
-75 45 l-25 45 28 50 c33 59 30 81 -16 108 -61 37 -72 36 -113 -8 -31 -33 -44
-40 -75 -40 -60 0 -86 14 -94 52 -12 58 -31 78 -73 78 -20 0 -48 -6 -62 -13z
m166 -328 c77 -20 132 -106 115 -182 -18 -78 -83 -131 -161 -131 -89 0 -151
63 -152 153 0 78 47 145 114 161 18 4 34 8 36 9 2 1 23 -4 48 -10z"/>
<path fill="#222750" d="M490 2599 c-19 -6 -45 -21 -56 -34 -19 -20 -21 -32 -17 -87 l5 -64
-51 -33 -51 -33 -50 31 c-60 37 -89 39 -117 9 -28 -30 -63 -90 -63 -106 0 -7
23 -38 51 -67 l51 -54 -12 -53 c-15 -62 -25 -78 -51 -78 -10 0 -37 -7 -59 -16
-49 -20 -56 -42 -40 -118 14 -68 29 -78 113 -75 l61 3 33 -45 c35 -48 40 -70
20 -88 -8 -6 -22 -29 -32 -51 -17 -37 -17 -41 -1 -65 20 -31 93 -85 114 -85 9
0 37 23 64 50 52 54 70 59 140 40 34 -10 37 -14 44 -55 13 -87 53 -110 147
-84 54 15 70 44 61 117 l-6 60 48 31 c27 17 54 31 61 31 6 0 34 -14 62 -31 48
-30 52 -31 75 -16 35 23 75 79 82 114 6 33 3 38 -65 95 -29 24 -31 31 -25 65
12 68 25 85 81 103 29 9 59 23 68 30 17 14 19 56 5 115 -13 57 -33 68 -107 61
l-62 -6 -35 51 -35 52 30 53 c42 73 37 100 -25 142 -67 45 -89 42 -143 -17
-42 -47 -46 -49 -86 -44 -74 10 -84 17 -92 69 -8 53 -42 94 -77 93 -13 0 -39
-5 -58 -10z m207 -425 c61 -39 104 -148 80 -203 -33 -76 -107 -131 -177 -131
-90 0 -170 81 -170 171 0 50 27 115 58 142 51 46 155 56 209 21z"/>
<path fill="#222750" d="M1894 2075 c-34 -14 -76 -85 -94 -157 l-12 -48 -58 0 c-31 0 -78 -3
-104 -6 l-46 -7 -26 59 c-61 139 -100 157 -218 100 -41 -20 -84 -48 -95 -62
-31 -39 -27 -96 12 -176 l32 -66 -35 -39 c-19 -21 -50 -56 -67 -77 l-32 -40
-90 29 -89 28 -33 -19 c-44 -25 -88 -112 -96 -188 -5 -53 -4 -59 22 -86 16
-17 59 -40 101 -56 l74 -27 0 -57 c0 -31 3 -77 6 -101 l5 -44 -63 -34 c-90
-48 -118 -77 -118 -122 0 -74 53 -179 107 -211 26 -15 32 -15 78 1 28 10 70
28 93 40 l44 22 66 -59 c37 -33 69 -67 70 -77 2 -9 -6 -52 -19 -95 -33 -116
-17 -150 90 -191 137 -52 179 -33 225 100 l28 81 52 0 c28 0 74 3 101 6 l50 6
35 -71 c61 -126 96 -141 208 -87 130 63 146 102 91 225 -36 81 -35 83 48 176
l52 58 84 -28 c99 -32 129 -28 165 25 26 39 62 149 62 191 0 36 -55 79 -140
110 l-58 21 -7 94 c-4 52 -8 97 -8 101 -1 4 30 25 68 45 98 54 119 79 112 139
-7 56 -48 142 -84 175 -35 33 -73 30 -163 -10 -86 -38 -74 -42 -173 51 l-49
46 21 71 c46 155 25 189 -145 239 -41 12 -56 13 -80 2z m-47 -646 c89 -43 142
-134 143 -245 0 -86 -29 -152 -95 -213 -104 -96 -283 -89 -374 15 -72 81 -95
172 -67 266 25 87 119 183 195 199 55 12 150 1 198 -22z"/>
</g>
</svg>